<?xml version="1.0" encoding="utf-8"?>
<!-- Generator: Adobe Illustrator 25.2.1, SVG Export Plug-In . SVG Version: 6.00 Build 0)  -->
<svg version="1.1" id="Layer_1" xmlns="http://www.w3.org/2000/svg" xmlns:xlink="http://www.w3.org/1999/xlink" x="0px" y="0px"
	 viewBox="0 0 864 864" style="enable-background:new 0 0 864 864;" xml:space="preserve">
<style type="text/css">
	.st0{fill:#FFFFFF;}
	.st1{fill:#F1B806;}
</style>
<path class="st0" d="M585.7,246.12c31.33-23.03,68.45-49.64,109.42-46.6c15.29,1.13,31.15,7.38,42.12,18.24
	c11.49,11.38,15.82,27.5,12.62,43.29c-7.89,38.92-44.84,59.55-78.55,73.67c-45.77,19.17-93.33,34.33-141.54,46.07
	c-1.7-3.6-3.57-7.14-5.67-10.56c-9.36-15.27-22.43-27.6-37.56-36.73C517.16,302.07,550.32,272.12,585.7,246.12z M400.98,185.58
	c4.37-35.15,12.46-73.66,44.03-94.37c13.07-8.57,28.22-13.83,43.92-14.09c17.3-0.29,31.07,6.01,40.1,21.03
	c19.39,32.26,14.49,73.39,1.86,107.09c-7.59,20.27-18.5,39.21-29.86,57.57c-12.41,20.05-25.38,39.75-38.14,59.57
	c-1.01-0.35-2.02-0.72-3.04-1.05c-12.95-4.19-26.77-6.48-40.39-6.01c-4.88,0.17-8.95,0.39-13.89,0.78c-0.3-1.87-0.7-3.1-0.96-4.68
	C397.89,269.93,395.78,227.38,400.98,185.58z M241.21,266.04c-27.39-27.7-52.44-62.63-52.62-103.22
	c-0.08-17.85,5.11-36.89,19.47-48.55c14.07-11.44,31.49-9.62,47.08-2.19c31.92,15.22,52.31,46.09,69.31,75.84
	c23.61,41.3,44.72,84.52,55.73,131.04c0.1,0.43,0.22,0.85,0.36,1.24c-0.81,0.23-1.63,0.45-2.43,0.71
	c-1.74,0.56-11.07,4.23-14.68,5.82c-7.77,3.44-17.47,8.36-29.4,17.07C301.75,319.56,269.63,294.77,241.21,266.04z M161.64,454.36
	c-19.95-1.16-39.84-4.56-58.77-11.07c-15.48-5.33-29.85-14.09-36.73-29.52c-11.89-26.65-0.27-58.55,22.34-76
	c28.7-22.14,67.48-23.89,101.61-16.5c41.49,8.98,81.63,27.25,119.29,47.05c-8.15,11.46-13.77,24.8-15.74,40.15
	c-1.52,11.84-0.9,22.12,0.32,33.99c-1.99,0.47-4.85,0.96-7.24,1.34C245.41,450.39,203.62,456.79,161.64,454.36z M254.84,608.83
	c-15.98,12.18-32.73,23.52-50.19,33.47c-16.48,9.39-34.7,17.7-53.99,18.03c-15.67,0.27-32.71-4.56-42.74-17.38
	c-9.07-11.61-11.16-27.83-8.41-41.99c7.06-36.36,40.18-58.97,69.99-76.57c40.28-23.79,83.53-41.88,128.64-54.18
	c2.06,7.72,4.88,15.22,8.76,22.35c7.48,13.75,18.27,25.37,30.99,34.29c-0.23,0.49-0.46,0.99-0.69,1.48
	C313.01,558.21,285.42,585.53,254.84,608.83z M446.5,663.7c-0.29,35.63-5.1,76.23-32.04,102.35c-21.52,20.86-56.33,30.19-80.51,8.26
	c-28.72-26.04-27.58-67.85-20.46-102.84c15.98-78.54,38.01-119.09,38.72-119.98c1.02-1.28,6.15-11.59,6.73-13.05
	c0.62,0.27,1.24,0.54,1.87,0.79c23.59,9.34,48.71,7.62,72.6,0.82C442.26,580.64,446.84,622.14,446.5,663.7z M653.14,676.57
	c-0.31,14.96-4.66,30.83-14.35,42.53c-10.92,13.19-26.96,19.02-43.84,18.41c-39.25-1.42-66.69-33.88-84.96-65.29
	c-46.01-79.07-41.95-120.34-49.06-141.81c17.56-7.2,34.33-16.46,48.31-29.3c3.26-2.99,6.25-6.17,8.99-9.5
	c30.75,25.33,59.31,53.27,85.2,83.57C627.62,603.51,653.95,637.37,653.14,676.57z M763.92,514.21
	c-27.97,25.14-69.1,25.53-103.7,17.37c-43.71-10.31-74.2-23.79-110.77-49.62c-1.41-1-17.46-10.1-18.38-10.85
	c8.52-18.49,11.09-39.39,8.01-59.67c43.78-2.19,87.64-4.36,131.48-2.52c19.44,0.82,39.21,1.83,58.32,5.7
	c14.74,2.99,30.29,7.72,41.54,18.2C794.82,455.54,786.76,493.69,763.92,514.21z"/>
<path class="st1" d="M383.07,520.58c-19.09-3.73-36.55-14.28-48.57-29.62c-13.91-17.74-17.22-40.48-17.83-62.41
	c-0.33-11.98,0.55-24.2,5.42-35.31c7.49-17.09,11.25-20.74,17.3-26.09c4.8-4.25,11.46-9.49,16.07-11.98
	c9.99-5.39,24.54-10.84,43.8-15.56c0.13-0.03,0.24-0.07,0.37-0.11c4.78-0.88,9.61-1.45,14.53-1.43c10.03,0.05,20.36,1.41,30.11,3.76
	c19.04,4.58,36.75,13.97,50.05,28.51c24.79,27.11,30.48,72.42,7.99,102.56c-12.52,16.77-32.08,27.72-51.17,35.37
	C430.07,516.71,406.01,525.07,383.07,520.58z"/>
<path d="M801.35,434.04c-18.48-36.68-63.76-44.12-100.49-47.41c-31.87-2.86-63.83-3.08-95.79-2.23
	c22.99-7.4,45.71-15.65,68.08-24.78c40.75-16.62,83.11-39.15,97.56-83.88c6.54-20.26,5.4-43.36-5.94-61.73
	c-10.34-16.74-27.34-28.26-45.92-34.07c-44.19-13.83-88.36,7.67-124.28,32.2c-24.22,16.54-46.55,35.12-67.88,54.85
	c9.44-16.04,18.09-32.49,25.07-49.72c16.03-39.55,20.66-85.88,1.35-125.16c-9.31-18.94-25.39-33.85-46.58-37.73
	c-20.24-3.7-40.87-0.17-59.54,8.1c-17.38,7.7-32.21,20.22-43.39,35.52c-13.06,17.86-18.8,40.11-22.89,61.52
	c-4.53,23.7-6.59,47.62-6.7,71.56c-7.84-16.78-16.52-33.18-25.51-49.28c-19.15-34.33-42.33-70.41-78.27-89.11
	c-20.26-10.54-43.18-15.25-64.6-5.33c-20.22,9.36-33.63,29.42-38.57,50.69c-10.71,46.08,11,91.77,40.01,126.41
	c17.5,20.89,37.66,39.51,58.84,56.97c-20.3-8.54-40.93-16.55-62.33-21.88c-40.43-10.07-85.59-9.9-121.73,13.31
	c-32.63,20.95-51.26,59.04-42.18,97.62c10.3,43.8,55.57,59.28,95.4,65.09c23.7,3.46,47.42,3.74,71.09,2.25
	c-13.89,6.39-27.52,13.34-40.82,20.88c-35.73,20.25-74.75,46.13-87.24,87.64c-5.74,19.05-5.25,39.92,2.85,58.18
	c8.22,18.53,25.32,31.44,44.64,36.72c44.23,12.09,87.05-13.75,122.12-37.87c22.25-15.3,43.25-32.33,62.77-50.92
	c-7.36,20.9-13.6,42.21-18.51,63.96c-9.82,43.45-12.5,91.47,17.92,127.62c12.81,15.22,30.87,24.78,50.62,26.74
	c18.78,1.86,38.3-4.35,53.99-14.47c37.23-24.02,51.47-66.79,54.95-109.05c1.06-12.84,1.46-25.79,1.29-38.79
	c4.3,9.61,8.97,19.05,14.03,28.29c20.66,37.69,51.21,75.68,96.1,83.23c21.03,3.54,43.78,0.81,61.46-11.92
	c16.2-11.66,27.02-29.04,31.73-48.36c10.66-43.68-9.43-85.27-35.51-119.26c-11.27-14.68-23.26-28.83-35.85-42.45
	c13.88,5.73,28.07,10.63,42.49,14.56c41.37,11.25,89.15,12.62,125.55-13.41c16.53-11.82,29.28-27.85,35.12-47.49
	C811.54,472.67,810.28,451.78,801.35,434.04z M585.57,245.97c31.33-23.03,68.45-49.64,109.42-46.6
	c15.29,1.13,31.15,7.38,42.12,18.24c11.49,11.38,15.82,27.5,12.62,43.29c-7.89,38.92-44.84,59.55-78.55,73.67
	c-45.77,19.17-93.33,34.33-141.54,46.07c-1.7-3.6-3.57-7.14-5.67-10.56c-9.36-15.27-22.43-27.6-37.56-36.73
	C517.03,301.93,550.19,271.97,585.57,245.97z M400.85,185.44c4.37-35.15,12.46-73.66,44.03-94.37
	c13.07-8.57,28.22-13.83,43.92-14.09c17.3-0.29,31.07,6.01,40.1,21.03c19.39,32.26,14.49,73.39,1.86,107.09
	c-7.59,20.27-18.5,39.21-29.86,57.57c-12.41,20.05-25.38,39.75-38.14,59.57c-1.01-0.35-2.02-0.72-3.04-1.05
	c-12.95-4.19-26.77-6.48-40.39-6.01c-4.88,0.17-8.95,0.39-13.89,0.78c-0.3-1.87-0.7-3.1-0.96-4.68
	C397.76,269.78,395.66,227.23,400.85,185.44z M241.08,265.9c-27.39-27.7-52.44-62.63-52.62-103.22
	c-0.08-17.85,5.11-36.89,19.47-48.55c14.07-11.44,31.49-9.62,47.08-2.19c31.92,15.22,52.31,46.09,69.31,75.84
	c23.61,41.3,44.72,84.52,55.73,131.04c0.1,0.43,0.22,0.85,0.36,1.24c-0.81,0.23-1.63,0.45-2.43,0.71
	c-1.74,0.56-11.07,4.23-14.68,5.82c-7.77,3.44-17.47,8.36-29.4,17.07C301.62,319.41,269.5,294.63,241.08,265.9z M161.51,454.21
	c-19.95-1.16-39.84-4.56-58.77-11.07c-15.48-5.33-29.85-14.09-36.73-29.52c-11.89-26.65-0.27-58.55,22.34-76
	c28.7-22.14,67.48-23.89,101.61-16.5c41.49,8.98,81.63,27.25,119.29,47.05c-8.15,11.46-13.77,24.8-15.74,40.15
	c-1.52,11.84-0.9,22.12,0.32,33.99c-1.99,0.47-4.85,0.96-7.24,1.34C245.28,450.24,203.49,456.64,161.51,454.21z M254.71,608.69
	c-15.98,12.18-32.73,23.52-50.19,33.47c-16.48,9.39-34.7,17.7-53.99,18.03c-15.67,0.27-32.71-4.56-42.74-17.38
	c-9.07-11.61-11.16-27.83-8.41-41.99c7.06-36.36,40.18-58.97,69.99-76.57c40.28-23.79,83.53-41.88,128.64-54.18
	c2.06,7.72,4.88,15.22,8.76,22.35c7.48,13.75,18.27,25.37,30.99,34.29c-0.23,0.49-0.46,0.99-0.69,1.48
	C312.88,558.06,285.3,585.39,254.71,608.69z M446.37,663.56c-0.29,35.63-5.1,76.23-32.04,102.35
	c-21.52,20.86-56.33,30.19-80.51,8.26c-28.72-26.04-27.58-67.85-20.46-102.84c15.98-78.54,38.01-119.09,38.72-119.98
	c1.02-1.28,6.15-11.59,6.73-13.05c0.62,0.27,1.24,0.54,1.87,0.79c23.59,9.34,48.71,7.62,72.6,0.82
	C442.13,580.5,446.71,621.99,446.37,663.56z M383.07,520.58c-19.09-3.73-36.55-14.28-48.57-29.62
	c-13.91-17.74-17.22-40.48-17.83-62.41c-0.33-11.98,0.55-24.2,5.42-35.31c7.49-17.09,11.25-20.74,17.3-26.09
	c4.8-4.25,11.46-9.49,16.07-11.98c9.99-5.39,24.54-10.84,43.8-15.56c0.13-0.03,0.24-0.07,0.37-0.11c4.78-0.88,9.61-1.45,14.53-1.43
	c10.03,0.05,20.36,1.41,30.11,3.76c19.04,4.58,36.75,13.97,50.05,28.51c24.79,27.11,30.48,72.42,7.99,102.56
	c-12.52,16.77-32.08,27.72-51.17,35.37C430.07,516.71,406.01,525.07,383.07,520.58z M653.01,676.43
	c-0.31,14.96-4.66,30.83-14.35,42.53c-10.92,13.19-26.96,19.02-43.84,18.41c-39.25-1.42-66.69-33.88-84.96-65.29
	C463.85,593,467.92,551.73,460.8,530.27c17.56-7.2,34.33-16.46,48.31-29.3c3.26-2.99,6.25-6.17,8.99-9.5
	c30.75,25.33,59.31,53.27,85.2,83.57C627.5,603.36,653.82,637.23,653.01,676.43z M763.79,514.07
	c-27.97,25.14-69.1,25.53-103.7,17.37c-43.71-10.31-74.2-23.79-110.77-49.62c-1.41-1-17.46-10.1-18.38-10.85
	c8.52-18.49,11.09-39.39,8.01-59.67c43.78-2.19,87.64-4.36,131.48-2.52c19.44,0.81,39.21,1.83,58.32,5.7
	c14.74,2.99,30.29,7.72,41.54,18.2C794.69,455.4,786.63,493.54,763.79,514.07z"/>
</svg>
